<svg id="Layer_1" data-name="Layer 1" xmlns="http://www.w3.org/2000/svg" viewBox="0 0 815.97 1026"><defs><style>.cls-1{fill:#fff;}</style></defs><path class="cls-1" d="M839.57,24A105.56,105.56,0,1,0,945.13,129.56,105.56,105.56,0,0,0,839.57,24Zm0,174.17a68.61,68.61,0,1,1,68.61-68.61A68.61,68.61,0,0,1,839.57,198.17Z" transform="translate(-129.16 -24)"/><path class="cls-1" d="M235.77,24A105.56,105.56,0,1,0,341.33,129.56,105.56,105.56,0,0,0,235.77,24Zm0,174.17a68.61,68.61,0,1,1,68.62-68.61A68.61,68.61,0,0,1,235.77,198.17Z" transform="translate(-129.16 -24)"/><path class="cls-1" d="M311.78,574.62A37.35,37.35,0,0,1,274.44,612h-83a32.7,32.7,0,0,1-32.72-32.72V360.61a76.94,76.94,0,0,1,76.93-76.94h0a76.14,76.14,0,0,1,76.13,76.13v2.47l28.5,43.27V355.45A105.56,105.56,0,0,0,234.72,249.9h0A105.56,105.56,0,0,0,129.16,355.45V590.82a51.73,51.73,0,0,0,50.55,51.72l5.68,335.83a70.21,70.21,0,0,0,71.38,69h0a70.21,70.21,0,0,0,69-71.38L320,632.72a50.1,50.1,0,0,0,20.33-40.33V547.66l-28.5-9.22Zm-55.56,446.9h0c-24.09.62-44-28.51-44.36-65.07l-3.5-313.88h81.73a50.27,50.27,0,0,0,5.09-.26q2,155.94,3.92,311.9C299.51,990.76,280.31,1020.9,256.22,1021.52Z" transform="translate(-129.16 -24)"/><path class="cls-1" d="M583.08,515.4c-.92-1.8-1.93-3.54-3-5.23a61.29,61.29,0,0,0-15.25-16.31,61.91,61.91,0,0,0-17.73-9.11L350.59,421.2l-10.31-15.66-28.5-43.27-24.14-36.64A61.75,61.75,0,1,0,184.5,393.57l74.43,113a65.23,65.23,0,0,0,33.38,25.59l19.47,6.29,28.5,9.22,168.81,54.6a61.53,61.53,0,0,0,19,3h0a61.73,61.73,0,0,0,55-89.87ZM517,578,340.28,520.8l-28.5-9.22-11.55-3.73a39.95,39.95,0,0,1-20-15.41l-74.43-113A36.41,36.41,0,0,1,216.17,329h0a36.42,36.42,0,0,1,50.44,10.38l45.17,68.56,22.68,34.44,5.82,1.88,199.15,64.41a37.11,37.11,0,0,1,5.91,2.52,36.41,36.41,0,0,1,17.53,43.34h0A36.4,36.4,0,0,1,517,578Z" transform="translate(-129.16 -24)"/><path class="cls-1" d="M590.71,550.21c-.41.14-.82.26-1.24.38h0a62.31,62.31,0,0,1-8.34,24.57h0a41.44,41.44,0,0,0,14.1-2.2l126.95-43.07L731,502.61Z" transform="translate(-129.16 -24)"/><path class="cls-1" d="M839.35,252.51A105.57,105.57,0,0,0,733.79,358.07V436.4L568,492.64c-1.08.37-2.12.77-3.15,1.21a61.4,61.4,0,0,1,15.23,16.32h0L733.79,458V494l28.5-88.15v-43.4a76.53,76.53,0,0,1,153.06.81V581.86a32.72,32.72,0,0,1-20.44,30.32,32.38,32.38,0,0,1-12.28,2.4H815.38l-9.91,30.61h60.24L862.2,959.07c-.41,36.56-20.27,65.69-44.35,65.07C794,1023.54,775,994,775,958c0-.38,0-.75,0-1.13l3-236.84a53.72,53.72,0,0,1-25.57,18.92l-4.07,239.71a70.22,70.22,0,0,0,69,71.38h1.21a70.18,70.18,0,0,0,70.15-69l5.69-335.83a51.74,51.74,0,0,0,50.56-51.72V358.07A105.56,105.56,0,0,0,839.35,252.51Z" transform="translate(-129.16 -24)"/><path class="cls-1" d="M858.9,304.78l-6-2.36A49.58,49.58,0,0,0,834.79,299c-22.71,0-43,15.71-50.6,39.09l-21.9,67.75L733.79,494l-2.8,8.64-8.81,27.28L679.74,661.13c-9.8,30.33,4.77,63.82,32.5,74.66l6,2.35a49.25,49.25,0,0,0,34.11.76A53.72,53.72,0,0,0,777.93,720a59.24,59.24,0,0,0,9-17.48l18.52-57.31,9.91-30.61,76-235.14C901.21,349.11,886.63,315.62,858.9,304.78Zm6.9,65.32L787.41,612.53l-26.06,80.62a30.19,30.19,0,0,1-8.44,13.2,25.26,25.26,0,0,1-16.94,6.7,24.43,24.43,0,0,1-8.91-1.7l-6-2.36c-14.17-5.53-21.56-22.84-16.47-38.58l29.21-90.34,28.5-88.15L809,347.36c3.85-11.91,14.05-19.9,25.39-19.9a24.39,24.39,0,0,1,8.91,1.7l6,2.34C863.5,337.05,870.89,354.36,865.8,370.1Z" transform="translate(-129.16 -24)"/></svg>