<svg id="Layer_1" data-name="Layer 1" xmlns="http://www.w3.org/2000/svg" xmlns:xlink="http://www.w3.org/1999/xlink" viewBox="0 0 1013.53 1013.53"><defs><style>.cls-1{fill:url(#linear-gradient);}.cls-2{fill:url(#linear-gradient-2);}</style><linearGradient id="linear-gradient" x1="36" y1="543.24" x2="1049.53" y2="543.24" gradientUnits="userSpaceOnUse"><stop offset="0" stop-color="#e71c81"/><stop offset="1" stop-color="#ff0063"/></linearGradient><linearGradient id="linear-gradient-2" x1="184.53" y1="571.5" x2="887.21" y2="571.5" xlink:href="#linear-gradient"/></defs><path class="cls-1" d="M1009.69,346a508.34,508.34,0,1,0,39.84,197.28A504.94,504.94,0,0,0,1009.69,346ZM543.05,1000.87c-252.9,0-457.92-205-457.92-457.92S290.15,85,543.05,85,1001,290.05,1001,543,796,1000.87,543.05,1000.87Z" transform="translate(-36 -36.47)"/><path class="cls-2" d="M878.42,319.62a26.68,26.68,0,0,0-37.68,1.91L441.93,763,231.73,510a26.69,26.69,0,0,0-37.57-3.47h0a26.69,26.69,0,0,0-3.47,37.57L420.52,820.66a26.64,26.64,0,0,0,36.16,4.51c.38-.26.75-.54,1.11-.83l.29-.21h0c.07-.06.12-.12.19-.17a28.61,28.61,0,0,0,2.9-2.73L880.33,357.3A26.69,26.69,0,0,0,878.42,319.62Z" transform="translate(-36 -36.47)"/></svg>