<svg id="Layer_1" data-name="Layer 1" xmlns="http://www.w3.org/2000/svg" viewBox="0 0 1007.49 1024"><defs><style>.cls-1{fill:#fff;}</style></defs><path class="cls-1" d="M936.32,142.05H933a127.33,127.33,0,0,1,9.47,48.28v27.25a52.78,52.78,0,0,1,30.44,47.83V686.33a50.1,50.1,0,0,1-50.09,50.09H856.29a38.7,38.7,0,0,0-38.7,38.71V868c0,33.17-39,51-64.05,29.26L578.72,745.87a38.25,38.25,0,0,0-4.91-3.61l-74.56,64.57h28a38.71,38.71,0,0,1,25.34,9.45l271.59,235.2c25.06,21.71,64,3.9,64-29.26V845.54a38.71,38.71,0,0,1,38.71-38.71h10.41a106.19,106.19,0,0,0,106.2-106.19V249.22A107.17,107.17,0,0,0,936.32,142.05Z" transform="translate(-36 -37)"/><path class="cls-1" d="M880.12,116.21A127.52,127.52,0,0,0,762.1,37H143.16A107.17,107.17,0,0,0,36,144.17V595.59A106.19,106.19,0,0,0,142.19,701.78H152.6a38.71,38.71,0,0,1,38.71,38.71V917.17c0,33.16,39,51,64.05,29.25L446.39,781,521,716.42l6-5.19a38.68,38.68,0,0,1,25.34-9.45H773.87A115.72,115.72,0,0,0,889.59,586.06V164.49A127.06,127.06,0,0,0,880.12,116.21ZM819.2,583.35a48,48,0,0,1-48,48H526.1a38.72,38.72,0,0,0-25.34,9.44l-80.55,69.77L338.9,781l-13,11.22c-20,17.32-48.81,9.48-59.67-11.22a38.63,38.63,0,0,1-4.37-18V670.07a38.71,38.71,0,0,0-38.71-38.7H156.68a50.09,50.09,0,0,1-50.1-50.09V160.35a52.8,52.8,0,0,1,52.79-52.79H768.49a50.71,50.71,0,0,1,50.71,50.72V583.35Z" transform="translate(-36 -37)"/><path class="cls-1" d="M455,142.74c-55.41-2.35-94.72,31.94-106.54,43.46,0,0-32.84,32-39.94,77.53-1.51,9.64-.23,16.1,2.35,21.15,5.19,10.16,15.57,14.47,17.62,15.27a35.16,35.16,0,0,0,10.57,2.35c.66.1,11.07,1.4,18-6.72a19.9,19.9,0,0,0,3.19-20.3,67,67,0,0,1,2.35-17.62c5.32-19.48,18.18-31.16,25.66-37.78,7.22-6.38,31.21-26.83,64.8-26.83a91.63,91.63,0,0,1,91.63,91.63A86.39,86.39,0,0,1,540.59,312c-8.5,26.82-27.82,42.81-39.05,50.34a45,45,0,0,1-9.78,5,141.18,141.18,0,0,0-45.69,27,143,143,0,0,0-25.16,29.05,142.44,142.44,0,0,0-18.67,112.9,24.3,24.3,0,0,0,23.58,18.21h.52a25.48,25.48,0,0,0,24.6-31.74,92.26,92.26,0,0,1,1.49-48.84c11-35.2,40.8-51.78,44.66-53.85,8.12-4.35,7.13-2.15,17.75-7.13,29.82-14,48-36.15,57.27-50.39a141.51,141.51,0,0,0,23-81.28C594,235.28,541.06,146.39,455,142.74Z" transform="translate(-36 -37)"/><circle class="cls-1" cx="394.14" cy="576.23" r="27.61"/></svg>