<svg id="Layer_1" data-name="Layer 1" xmlns="http://www.w3.org/2000/svg" viewBox="0 0 1049.46 941.49"><defs><style>.cls-1{fill:#fff;}</style></defs><path class="cls-1" d="M1050.61,269.82A30.6,30.6,0,0,1,1064.87,302l-12.11,60.75L1022.55,514.3l-6.88,34.54a39.9,39.9,0,0,1-50.45,30.46l-33.79-10-34.24-10.13a30.61,30.61,0,0,0-39.11,32.72L892.83,906l4.94,44.62a30.62,30.62,0,0,1-30.43,34H471.19a40,40,0,0,1-40.05-40h0A38.55,38.55,0,0,1,469.69,906H779.57a30.62,30.62,0,0,0,30.43-34L771.28,521.94,767,483a30.6,30.6,0,0,1,39.1-32.72l37.57,11.11,71.08,21A30.62,30.62,0,0,0,953.42,459L977,340.92a30.62,30.62,0,0,0-14.25-32.23L780,198.92a30.68,30.68,0,0,0-42.81,11.91c-36.61,68-108.51,114.39-191,114.39-84.75,0-158.28-48.86-193.91-119.89a30.65,30.65,0,0,0-42.72-12.91L119.4,302.18a30.61,30.61,0,0,0-14.71,32.5l28,140.51A30.61,30.61,0,0,0,173.22,498l87.31-31.89,36.34-13.27a30.61,30.61,0,0,1,41,31.32l-3.24,38.57-38.16,452.5a40.19,40.19,0,0,1-43.42,36.67h0A38.42,38.42,0,0,1,218,970.34l31.22-370.15a30.61,30.61,0,0,0-41-31.32l-53,19.35L125.59,599.3a40.74,40.74,0,0,1-54.21-30.1q-3.19-15.86-6.4-31.71L28.52,354.65,16.59,294.78a30.63,30.63,0,0,1,14.72-32.5L79.5,234.46h0L330.16,89.75l26.13-15.09c20.8-12,46.92,3.52,45.9,27.51-.09,2.08-.13,4.16-.13,6.26a144.09,144.09,0,1,0,288.17,0v-.69c-.11-24,25.83-38.94,46.37-26.6l26,15.64L997.5,237.91Z" transform="translate(-16 -70.51)"/></svg>