<svg id="Layer_1" data-name="Layer 1" xmlns="http://www.w3.org/2000/svg" viewBox="0 0 972.96 972.96"><defs><style>.cls-1{fill:#fff;}</style></defs><path class="cls-1" d="M539.52,44C270.84,44,53,261.85,53,530.52S270.84,1017,539.52,1017,1026,799.2,1026,530.52,808.19,44,539.52,44ZM745,916.37q-9.13-157.12-18.29-314.24c18.65-6.06,40.27-17.41,57.36-38.67,33.49-41.63,26.44-91.5,22.81-117.19-8.75-61.88-51.81-162.79-121-162.79-66.1,0-111.79,97.79-121,162.79-3.6,25.46-10.71,75.68,22.8,117.19,19.13,23.7,43.85,35.09,63.77,40.56l-13,352.32a440.65,440.65,0,0,1-198.69-.19q-6.81-173-13.64-346.08c38.92-9.48,67.86-31.61,74.11-58.39V304.47a17.11,17.11,0,1,0-34.21,0V503.33a9.54,9.54,0,0,1-19,0V304.47a14.63,14.63,0,1,0-29.14,0V503.33a9.54,9.54,0,0,1-19,0V304.47a14.63,14.63,0,1,0-29.14,0V503.33a9.55,9.55,0,0,1-19,0V304.47c.79-9-5.64-16.39-12.66-17.19-8-.91-17.06,6.69-16.47,17.19V503.33a9.55,9.55,0,0,1-19,0V304.47a17.75,17.75,0,1,0-35.47,0V551.68C274,581,308,604.7,352.46,612.39Q343,764.24,333.52,916.07C196,842.44,102.45,697.41,102.45,530.52c0-241.39,195.68-437.07,437.07-437.07S976.59,289.13,976.59,530.52C976.59,697.64,882.78,842.83,745,916.37Z" transform="translate(-53.04 -44.04)"/></svg>