<svg id="Layer_1" data-name="Layer 1" xmlns="http://www.w3.org/2000/svg" viewBox="0 0 1021.14 1013.8"><defs><style>.cls-1{fill:#fff;}</style></defs><path class="cls-1" d="M308.74,677.45a2.47,2.47,0,0,1-2-2.39V569.53a22,22,0,0,0-22-22,2.45,2.45,0,0,1-2.45-2.45V430.44a62.09,62.09,0,0,0-33.7-55.23l-61.34-31.55a50.12,50.12,0,0,0-39.46-2.73L136,345.08a48.92,48.92,0,0,0-32.77,46.6q.66,76.68,1.31,153.36a2.45,2.45,0,0,1-2.45,2.47h-1.61a22,22,0,0,0-22,22V674.08a2.41,2.41,0,0,1-2.2,2.43A43.55,43.55,0,0,0,36,719.93v287.25a46,46,0,0,0,46,46H296.67a46,46,0,0,0,46-46V719.93A43.57,43.57,0,0,0,308.74,677.45ZM142,405.28c0-1.77.06-3.46.08-5.06A18.89,18.89,0,0,1,154,382.86l.12-.05.12-.05A27.62,27.62,0,0,1,178,384.3q12.93,7.26,26,14.76,11.49,6.62,22.79,13.21a33.07,33.07,0,0,1,16.36,28.55V533a14.55,14.55,0,0,1-14.55,14.55H156.45A14.48,14.48,0,0,1,142,533.17C141.7,502.86,140.6,469.71,142,405.28Zm-24.47,205a22,22,0,0,1,22-22H244a22,22,0,0,1,22,22v63.62a2.44,2.44,0,0,1-2.44,2.44H120a2.45,2.45,0,0,1-2.45-2.44Zm172.91,346.3a46,46,0,0,1-42.41,45.85V865.59a24.47,24.47,0,0,0-48.94,0v137h-60a46,46,0,0,1-46-46V777.84a46,46,0,0,1,46-46H244.47a46,46,0,0,1,46,46Z" transform="translate(-36 -40.2)"/><path class="cls-1" d="M619.76,527l-89.44.81a.06.06,0,0,1-.06-.06V335.45h37.52a19.58,19.58,0,0,0,0-39.15H530.26V273.46h37.52a19.58,19.58,0,0,0,0-39.15H530.26V209.84h37.52a19.58,19.58,0,0,0,0-39.15H530.26V146.23h37.52a19.58,19.58,0,0,0,0-39.15H530.26V82.61h37.52a19.58,19.58,0,0,0,0-39.15H458.49a19.58,19.58,0,1,0,0,39.15h34.25v24.47H458.49a19.58,19.58,0,1,0,0,39.15h34.25v24.46H458.49a19.58,19.58,0,1,0,0,39.15h34.25v24.47H458.49a19.58,19.58,0,1,0,0,39.15h34.25V296.3H458.49a19.58,19.58,0,1,0,0,39.15h34.25v192.6a.06.06,0,0,1-.06.06l-88.23.79A23.66,23.66,0,0,0,381,552.56V811.83a22,22,0,0,0,.13,2.43l.09.88a547.83,547.83,0,0,0,70.49,218.45l4.94,8.57A23.64,23.64,0,0,0,477.14,1054h72.18A23.65,23.65,0,0,0,570,1041.82l4.89-8.82a574.26,574.26,0,0,0,54.43-137,572.23,572.23,0,0,0,14.06-77.3l.1-.94a23.19,23.19,0,0,0,.15-2.63V550.62A23.66,23.66,0,0,0,619.76,527ZM602,813.65a24.84,24.84,0,0,1-.15,2.73A529.21,529.21,0,0,1,561,968.44l-97.92.34q-4-8.89-7.83-18.36A511.16,511.16,0,0,1,421.1,813a23.68,23.68,0,0,1-.13-2.53V655.22s0-.05.06-.05H539.34c10.81,0,20.11-8.46,20.28-19.27A19.57,19.57,0,0,0,540.05,616H421A.06.06,0,0,1,421,616V593.79a23.66,23.66,0,0,1,23.44-23.66l133.75-1.2A23.65,23.65,0,0,1,602,592.58Z" transform="translate(-36 -40.2)"/><path class="cls-1" d="M1057.06,248.7C1054,135,961.3,42.81,847.55,40.25,727,37.55,628.13,134.79,628.13,254.7a214.88,214.88,0,0,0,9.24,62.4l.89,2.92,72,151.3a45.22,45.22,0,0,1,4.38,19.41V965.36a87.82,87.82,0,0,0,87.82,87.82h75.47a83,83,0,0,0,83-83V500.81a44.91,44.91,0,0,1,5-20.51L1044.68,327l1-2.8A214.19,214.19,0,0,0,1057.06,248.7ZM920.12,968.2A45.83,45.83,0,0,1,874.29,1014h-70.8A46.49,46.49,0,0,1,757,967.55V678a13,13,0,0,1,13-13h58.65a13.17,13.17,0,0,1,13.17,13.18V794.06c0,10.09,7.08,19.12,17,20.7a20.4,20.4,0,0,0,23.73-20.12V677.76A12.82,12.82,0,0,1,895.41,665h11.82a12.9,12.9,0,0,1,12.89,12.9ZM907.51,625.8H770a13,13,0,0,1-13-13V514.62a12.79,12.79,0,0,1,12.79-12.79H907.16a13,13,0,0,1,13,13v98.4A12.61,12.61,0,0,1,907.51,625.8ZM1007.16,311q-37.81,73.6-75.64,147.19a5.36,5.36,0,0,1-4.77,2.91h0a6.17,6.17,0,0,1-6.08-7.25l15.11-85.74a20.25,20.25,0,0,0-16.41-23.45l-.31,0A20.23,20.23,0,0,0,895.62,361L879.3,453.51a9.13,9.13,0,0,1-9,7.54h0a8.92,8.92,0,0,1-8.92-8.92V360.57a20.23,20.23,0,0,0-20.23-20.23h-.33a20.22,20.22,0,0,0-20.22,20.23v91.24a9.24,9.24,0,0,1-9.24,9.24h0a9.45,9.45,0,0,1-9.3-7.8l-15.69-89A20.23,20.23,0,0,0,763,347.83l-.31.05a20.23,20.23,0,0,0-16.41,23.44l14.52,82.3a6.33,6.33,0,0,1-6.24,7.43h0a6.19,6.19,0,0,1-5.6-3.54q-36.18-76.14-72.39-152.26A173.8,173.8,0,0,1,840.81,81c94.51-1,173.28,74.83,175.61,169.32A173.39,173.39,0,0,1,1007.16,311Z" transform="translate(-36 -40.2)"/></svg>