<svg id="Layer_1" data-name="Layer 1" xmlns="http://www.w3.org/2000/svg" viewBox="0 0 993.56 1009.3"><defs><style>.cls-1{fill:#fff;}</style></defs><path class="cls-1" d="M895.88,891a494.41,494.41,0,0,1-74.63,61.38l75.49,18.18L877.85,1049,719,1010.74l-10-2.39-68.77-16.57,18.49-55.31,7.18-21.5,44.52-133.26,76.52,25.58-28.73,86c119.26-71.9,199.18-202.71,199.18-351.81,0-206.64-153.48-378.1-352.41-406.39V51.17a493.64,493.64,0,0,1,435.59,490.55A492.66,492.66,0,0,1,895.88,891Z" transform="translate(-47 -39.7)"/><path class="cls-1" d="M191.68,197.71a495,495,0,0,1,74.64-61.38l-75.5-18.18,18.9-78.45L368.61,78l10,2.39,68.77,16.57-18.49,55.31-7.18,21.5L377.15,307l-76.51-25.57,28.72-86c-119.25,71.9-199.17,202.71-199.17,351.81,0,206.64,153.47,378.1,352.41,406.39v83.89A493.83,493.83,0,0,1,191.68,197.71Z" transform="translate(-47 -39.7)"/><path class="cls-1" d="M811.33,400.09c-27-53.85-99.91-78.68-151.28-64.91-27.66,7.39-53.91,27.32-62.09,33.87a203.38,203.38,0,0,0-28.23,27.43,202.67,202.67,0,0,0-28.22-27.43c-8.18-6.55-34.43-26.48-62.09-33.87-51.37-13.77-124.24,11.06-151.28,64.91-19.87,39.63-8,80.89-1.13,104.43,20.21,69.88,65.65,100.08,129.83,169.34A1079.06,1079.06,0,0,1,569.73,819.15a1079.81,1079.81,0,0,1,112.9-145.29c64.18-69.26,109.62-99.46,129.83-169.34C819.29,481,831.2,439.72,811.33,400.09Z" transform="translate(-47 -39.7)"/></svg>