<svg id="Layer_1" data-name="Layer 1" xmlns="http://www.w3.org/2000/svg" viewBox="0 0 1009 1006.77"><defs><style>.cls-1{fill:#fff;}</style></defs><path class="cls-1" d="M64.76,1046.38A26.77,26.77,0,0,1,38,1019.67V213.31c0-95.79,77.93-173.7,173.7-173.7H873.29c95.78,0,173.71,77.91,173.71,173.7v399c0,95.78-77.93,173.7-173.71,173.7H377.2a5.46,5.46,0,0,0-3.5,1.31L82.14,1039.83A26.53,26.53,0,0,1,64.76,1046.38Zm148-898.5c-36.23,0-65.7,28.36-65.7,63.2V825.35a5.08,5.08,0,0,0,1.6,3.84,5.59,5.59,0,0,0,3.82,1.52,5.1,5.1,0,0,0,3.34-1.27L343.35,672.33a26.84,26.84,0,0,1,17.14-6.23H864.65c36.21,0,65.69-28.33,65.69-63.17V211.08c0-34.84-29.48-63.2-65.69-63.2Z" transform="translate(-38 -39.61)"/><path class="cls-1" d="M548.87,480.73a52.72,52.72,0,0,1-52.65-52.67V242.33a52.72,52.72,0,0,1,52.65-52.65h3.76a52.71,52.71,0,0,1,52.65,52.65V428.06a52.72,52.72,0,0,1-52.65,52.67Z" transform="translate(-38 -39.61)"/><circle class="cls-1" cx="511.11" cy="519.78" r="56.17"/></svg>