<svg id="Layer_1" data-name="Layer 1" xmlns="http://www.w3.org/2000/svg" viewBox="0 0 1057 838.4"><defs><style>.cls-1{fill:#fff;}</style></defs><path class="cls-1" d="M34.1,368.73,521,121.86a24.49,24.49,0,0,1,22.06,0L1041.31,372c18,9,18,34.63.08,43.72L554.49,662.63a24.49,24.49,0,0,1-22.06,0L34.18,412.45C16.23,403.43,16.18,377.81,34.1,368.73ZM553,582.46l329.31-167c17.92-9.09,17.87-34.71-.09-43.73L544.11,202a24.49,24.49,0,0,0-22.06,0L192.74,369c-17.92,9.09-17.88,34.7.08,43.72L530.91,582.5A24.48,24.48,0,0,0,553,582.46Z" transform="translate(-9 -119.21)"/><path class="cls-1" d="M1062.31,512.8a33.76,33.76,0,0,1-14.74,45.41L591,791.11l-34.46,17.57a33.77,33.77,0,0,1-30.67,0L478.7,784.6,27.43,554.39A33.76,33.76,0,0,1,12.69,509h0a33.76,33.76,0,0,1,45.42-14.73l467.8,238.62a33.73,33.73,0,0,0,30.68,0l460.3-234.8a33.76,33.76,0,0,1,45.42,14.73Z" transform="translate(-9 -119.21)"/><path class="cls-1" d="M1062.31,658a33.77,33.77,0,0,1-14.74,45.42L591,936.35l-34.46,17.57a33.77,33.77,0,0,1-30.67,0L478.7,929.84,27.43,699.63a33.76,33.76,0,0,1-14.74-45.41h0a33.76,33.76,0,0,1,45.42-14.73l467.8,238.62a33.73,33.73,0,0,0,30.68,0l460.3-234.8A33.77,33.77,0,0,1,1062.31,658Z" transform="translate(-9 -119.21)"/></svg>