<svg id="Layer_1" data-name="Layer 1" xmlns="http://www.w3.org/2000/svg" viewBox="0 0 988.35 839.84"><defs><style>.cls-1{fill:#fff;}</style></defs><path class="cls-1" d="M443.32,754.62A101.69,101.69,0,1,0,545,856.31,101.69,101.69,0,0,0,443.32,754.62Zm-3.08,156.13a53.42,53.42,0,1,1,53.41-53.41A53.41,53.41,0,0,1,440.24,910.75Z" transform="translate(-43 -118.16)"/><path class="cls-1" d="M774.35,753.07A101.69,101.69,0,1,0,876,854.76,101.69,101.69,0,0,0,774.35,753.07ZM771.27,909.2a53.42,53.42,0,1,1,53.41-53.42A53.42,53.42,0,0,1,771.27,909.2Z" transform="translate(-43 -118.16)"/><path class="cls-1" d="M1004.69,883.5a26.78,26.78,0,0,1-4.47.36c-371.87,5.1-633.56,8.75-680.86,9.54-.46,0-2.73,0-6-.15A118.58,118.58,0,0,1,200.92,775a117.16,117.16,0,0,1,2.32-23.31,99.67,99.67,0,0,1,8.35-25.74c12.85-26.56,34.17-39.94,46.75-47.86a154.27,154.27,0,0,1,26.48-13.25,33.62,33.62,0,0,0,19.8-41.24l-126-412.11a33.78,33.78,0,0,0-32.3-23.9H76.77A33.77,33.77,0,0,1,43,153.78v-1.85a33.77,33.77,0,0,1,33.77-33.77H197.66A33.77,33.77,0,0,1,230,142.06l6.86,22.42L379.93,632.62a33.78,33.78,0,0,0,32.3,23.9H815.85a33.78,33.78,0,0,0,32.77-25.6l103.22-414a33.77,33.77,0,0,1,40.93-24.6l1.79.45a33.77,33.77,0,0,1,24.6,40.94L913.73,656.52l-10.92,43.79A33.77,33.77,0,0,1,870,725.91H427.12l-86.41,2.3a33,33,0,0,0-7.79,1.12,61.39,61.39,0,0,0-14.76,6.15c-5.29,3.06-15.38,9.12-21.53,21.53a47.14,47.14,0,0,0-4.79,19.14c-.07,2.33-.45,22.42,14.36,35.9,5.76,5.24,11.75,7.6,16.75,9.57a74.65,74.65,0,0,0,21.53,4.78c13.85,1.37,44.1,1.82,83.75,0L999.68,824a32.32,32.32,0,0,1,20.18,6.59,29.44,29.44,0,0,1,11.33,19.71C1032.84,865.33,1021.5,880.45,1004.69,883.5Z" transform="translate(-43 -118.16)"/><path class="cls-1" d="M740.53,299.21l-142-169.32a8.12,8.12,0,0,0-12.44,0l-142,169.32a8.11,8.11,0,0,0,6.22,13.33h78.18v248a23.52,23.52,0,0,0,23.53,23.53h81.45a23.53,23.53,0,0,0,23.54-23.53v-248h77.25A8.11,8.11,0,0,0,740.53,299.21Z" transform="translate(-43 -118.16)"/></svg>