<svg id="Layer_1" data-name="Layer 1" xmlns="http://www.w3.org/2000/svg" viewBox="0 0 1021 535.25"><defs><style>.cls-1{fill:#fff;}</style></defs><path class="cls-1" d="M883.82,394.23c-51.51-36-109.6-75.78-196.65-101.57-74.92-22.21-135.4-23.38-153.67-23.45-22-.07-108.58,1-211,43C254.79,340,210.38,373.23,165,407.26A991.09,991.09,0,0,0,23,536.84,1048.3,1048.3,0,0,0,184.48,678.13C241.85,718.71,293,754.91,372,779.71A534.9,534.9,0,0,0,533.5,804.46c108.24-.47,187.36-34.56,224-50.79,58-25.68,96.67-53.84,135.44-82A1016.55,1016.55,0,0,0,1044,536.84,915.52,915.52,0,0,0,883.82,394.23ZM826.72,643c-30.37,22.09-60.68,44.14-106.07,64.25C692,719.94,630,746.63,545.22,747a419.13,419.13,0,0,1-126.47-19.38c-61.85-19.43-101.94-47.78-146.87-79.55A820.74,820.74,0,0,1,145.42,537.41,776,776,0,0,1,256.59,435.93C292.17,409.27,327,383.22,380,361.47c80.19-32.87,148-33.72,165.22-33.65,14.31.05,61.68,1,120.35,18.35,68.17,20.21,113.67,51.4,154,79.56A717.24,717.24,0,0,1,945,537.41,796.79,796.79,0,0,1,826.72,643Z" transform="translate(-23 -269.21)"/><path class="cls-1" d="M533.5,377.3A160.19,160.19,0,1,0,693.68,537.49,160.18,160.18,0,0,0,533.5,377.3Zm0,255.25a95.07,95.07,0,1,1,95.07-95.06A95.07,95.07,0,0,1,533.5,632.55Z" transform="translate(-23 -269.21)"/></svg>